<svg xmlns="http://www.w3.org/2000/svg" width="16" height="16" viewBox="0 0 814 1000" fill="#ffffff">
	<path d="M788.1 340.9c-5.8 4.5-108.2 62.2-108.2 190.5 0 148.4 130.3 200.9 134.2 202.2-.6 3.2-20.7 71.9-68.7 141.9-42.8 61.6-87.5 123.1-155.5 123.1s-85.5-39.5-164-39.5c-76.5 0-103.7 40.8-165.9 40.8s-105.6-57.4-155.5-127.4c-58.1-81.1-105-207.4-105-327.5 0-192.8 125.4-295.2 248.8-295.2 65.6 0 120.3 43.1 161.5 43.1 39.1 0 100.1-45.7 174.5-45.7 28.2 0 129.5 2.6 196.3 99.7zM554.1 159.4c31.1-36.9 53.1-88.1 53.1-139.4 0-7.1-.6-14.3-1.9-20.1-50.6 1.9-110.8 33.7-147.1 75.8-28.9 32.4-54.4 83.6-54.4 135.8 0 7.8.6 15.6 1.3 18.2 2.6.6 6.4 1.3 10.2 1.3 45.4 0 103.4-30.4 138.8-71.6z"></path>
</svg>
